<svg width="287" height="275" viewBox="0 0 287 275" fill="none" xmlns="http://www.w3.org/2000/svg">
<mask id="mask0_1028_3097" style="mask-type:alpha" maskUnits="userSpaceOnUse" x="0" y="0" width="287" height="275">
<path d="M287 12.4783C287 5.85087 281.627 0.478271 275 0.478271H11.9999C5.37253 0.478271 -6.10352e-05 5.85085 -6.10352e-05 12.4783V263C-6.10352e-05 269.627 5.37253 275 11.9999 275H275C281.627 275 287 269.627 287 263V12.4783Z" fill="#FF7F4D"/>
</mask>
<g mask="url(#mask0_1028_3097)">
<path d="M161.297 297.026C157.212 291.876 154.958 287.589 153.756 284.185L152.939 284.692C148.629 265.405 156.916 246.644 156.916 246.644L184.34 238.963C184.34 238.963 188.565 252.189 192.021 260.334C197.397 267.579 206.101 269.884 206.101 269.884L211.416 304.961C211.421 304.965 173.072 311.876 161.297 297.026Z" fill="#E54728"/>
<path d="M121.746 210.107C104.102 220.366 86.4814 225.535 66.1097 224.258L9.27641 195.834C2.04138 175.434 -3.55974 154.034 -2.54562 132.414C-1.53149 110.793 6.83971 88.7737 23.5446 75.0126C31.4275 68.5194 40.8317 64.0685 48.6583 57.5048C59.7291 48.2181 67.4618 34.8608 80.1806 27.9966C100.355 17.1089 128.605 21.7335 138.272 43.0489C152.944 41.5136 170.907 56.0118 158.733 95.8444C155.4 106.756 149.892 121.268 151.7 132.531C156.916 165.077 145.526 196.285 121.746 210.107Z" fill="#2E0031"/>
<path d="M-7.12326 203.834C-0.45163 155.847 39.1743 147.508 39.1743 147.508L120.591 150.386C120.591 150.386 140.944 151.264 155.921 169.833C170.898 188.402 178.386 195.89 178.964 213.173C179.541 230.455 169.17 255.226 164.564 263.865C159.954 272.504 163.414 295.547 163.414 295.547C163.414 295.547 101.444 354.883 8.50642 341.821C11.1967 333.872 14.0325 325.445 14.8213 318.609C-5.37202 288.068 -12.6775 243.822 -7.12326 203.834Z" fill="#FF572F"/>
<path d="M165.522 293.025C165.682 293.767 165.301 294.546 164.536 294.757C163.832 294.95 162.963 294.523 162.804 293.771C161.381 287.198 161.034 280.409 161.794 273.728C162.564 266.939 164.386 260.334 167.231 254.122C168.799 250.699 170.691 247.432 172.875 244.361C173.316 243.741 174.105 243.446 174.799 243.854C175.41 244.211 175.748 245.159 175.307 245.779C171.546 251.061 168.677 256.934 166.813 263.141C164.954 269.315 164.076 275.752 164.236 282.198C164.325 285.846 164.752 289.461 165.522 293.025Z" fill="#180205"/>
<path d="M63.1799 88.7505C62.4099 73.5809 75.6592 75.6936 79.1195 82.7972C79.1195 82.7972 94.4816 83.3747 103.89 69.1629C113.299 54.9557 128.342 53.9933 134.676 62.2518C134.676 62.2518 144.211 60.524 145.559 74.9237C146.901 89.3233 141.113 134.64 111.938 134.067C111.938 134.067 112.144 145.203 112.914 149.044L120.595 150.387C120.595 150.387 114.623 168.702 85.8381 169.782C49.9305 171.125 39.1789 147.509 39.1789 147.509L60.3018 142.518C60.3018 142.518 74.509 123.7 77.1992 101.812C77.1992 101.807 63.9499 103.92 63.1799 88.7505Z" fill="#FFBEAE"/>
<path d="M57.7385 166.06C52.3299 163.652 47.3156 160.403 42.8835 156.473C42.3154 155.966 42.367 154.994 42.8835 154.483C43.4469 153.919 44.3061 153.975 44.8742 154.483C52.3862 161.14 61.7199 165.614 71.5748 167.464C81.486 169.323 91.7962 168.267 101.205 164.694C106.468 162.694 111.468 159.863 115.868 156.351C116.459 155.877 117.281 155.769 117.858 156.351C118.351 156.844 118.455 157.868 117.858 158.342C109.459 165.051 99.3458 169.319 88.6881 170.713C78.1665 172.089 67.415 170.37 57.7385 166.06Z" fill="#180205"/>
<path d="M61.2456 267.127C60.255 263.418 59.2596 259.709 58.269 256C56.6915 250.112 55.1186 244.229 53.5411 238.342C53.1795 236.99 52.8181 235.642 52.4565 234.29C51.987 232.539 54.7054 231.788 55.1749 233.539C56.1656 237.248 57.161 240.957 58.1516 244.666C59.7291 250.554 61.3019 256.436 62.8795 262.324C63.241 263.676 63.6025 265.024 63.964 266.376C64.4335 268.132 61.7151 268.878 61.2456 267.127Z" fill="#180205"/>
<path d="M41.2918 220.094L100.623 154.425C100.623 154.425 127.891 157.496 149.249 162.918C170.607 168.341 190.086 178.623 190.086 178.623C190.086 178.623 200.857 168.252 219.674 165.768C238.492 163.285 264.606 160.956 264.606 160.956L272.545 170.581L202.392 205.408L44.4562 235.179L41.2918 220.094Z" fill="#FCF4E6"/>
<path d="M130.577 256.961L41.2919 238.969L101.374 167.065L178.992 183.803H194.523L276.897 169.84L219.867 238.969L154.198 254.083L130.577 256.961Z" fill="#0E6AC3"/>
<path d="M178.992 183.802H194.523L154.198 254.082L130.577 256.96L178.992 183.802Z" fill="#1058C1"/>
<path d="M147.287 246.648L135 256.958C135 256.958 121.558 250.54 115.797 244.15C115.797 244.15 125.783 237.183 127.319 220.285C128.854 203.388 137.112 204.538 140.953 206.459C144.794 208.379 143.831 214.14 149.212 215.29C154.587 216.44 174.94 202.618 183.969 206.266C192.993 209.914 190.88 220.473 185.119 227.196C179.354 233.915 165.912 244.019 147.287 246.648Z" fill="#FFBEAE"/>
<path d="M32.6482 330.116C9.5769 326.82 -3.71941 286.734 -7.08572 248.352C-9.01538 226.36 62.6025 266.752 62.6025 266.752C72.3963 263.874 119.055 238.967 119.055 238.967C129.427 249.202 139.216 255.808 139.216 255.808C127.699 273.09 68.9408 335.304 32.6482 330.116Z" fill="#FF572F"/>
<path d="M57.5594 267.877C57.7062 267.815 57.2989 267.986 57.5594 267.877V267.877Z" fill="#180205"/>
<path d="M119.769 240.183C119.45 240.347 119.131 240.511 118.811 240.68C118.562 240.441 118.309 240.206 118.06 239.962C118.633 240.037 119.201 240.108 119.769 240.183Z" fill="#180205"/>
<path d="M118.811 240.681C119.13 240.517 119.45 240.353 119.769 240.184C119.201 240.109 118.633 240.038 118.06 239.963C118.309 240.207 118.562 240.437 118.811 240.681C117.257 241.489 115.698 242.301 114.14 243.104C109.557 245.475 104.966 247.832 100.369 250.175C94.5801 253.123 88.7818 256.053 82.96 258.945C77.4574 261.677 71.9361 264.387 66.3678 266.983C62.6353 268.725 58.8745 270.551 54.973 271.889C54.7148 271.978 54.4518 272.063 54.1842 272.143C52.4423 272.659 51.7005 269.941 53.433 269.424C54.8321 269.011 56.1843 268.438 57.5317 267.88C57.5411 267.875 57.5458 267.875 57.5552 267.87C57.7008 267.809 57.297 267.978 57.5552 267.87C57.5646 267.866 57.5646 267.866 57.574 267.861C57.6726 267.819 57.7759 267.776 57.8745 267.734C58.128 267.626 58.3815 267.518 58.6304 267.41C59.1233 267.199 59.6116 266.983 60.0999 266.762C61.2079 266.269 62.3066 265.767 63.4052 265.26C68.8092 262.767 74.1568 260.156 79.4904 257.518C85.3544 254.621 91.195 251.677 97.0262 248.71C101.825 246.268 106.618 243.813 111.402 241.339C113.679 240.16 115.938 238.925 118.238 237.794C118.271 237.78 118.304 237.761 118.332 237.742C118.896 237.451 119.576 237.508 120.041 237.963C125.811 243.649 132.009 248.949 138.596 253.654C139.033 253.968 139.474 254.278 139.92 254.583C140.521 254.992 140.868 255.842 140.427 256.508C137.934 260.241 135.051 263.729 132.14 267.142C127.957 272.044 123.567 276.772 119.046 281.364C113.684 286.815 108.13 292.078 102.383 297.115C96.3267 302.426 90.0495 307.492 83.5046 312.182C77.2837 316.637 70.7999 320.769 63.9546 324.201C57.9168 327.229 51.5268 329.802 44.8646 331.046C38.7704 332.183 32.3195 332.281 26.5258 329.821C19.6523 326.905 14.4315 321.074 10.436 314.938C5.356 307.135 1.87228 298.299 -0.841431 289.43C-3.96362 279.227 -6.03413 268.72 -7.42386 258.147C-7.7666 255.536 -8.06239 252.917 -8.31593 250.292C-8.39105 249.536 -7.61636 248.884 -6.90742 248.884C-6.08578 248.884 -5.57404 249.531 -5.49892 250.292C-4.48009 260.795 -2.7617 271.241 -0.141876 281.467C2.21033 290.655 5.25742 299.773 9.73177 308.168C13.2108 314.698 17.7696 321.253 23.9576 325.267C26.7042 327.051 29.4555 328.192 32.728 328.704C32.7984 328.713 33.0895 328.755 33.1129 328.76C33.0801 328.755 33.0519 328.751 33.0191 328.751C33.0989 328.76 33.1176 328.765 33.1129 328.76C33.2256 328.774 33.343 328.788 33.4557 328.802C33.8125 328.844 34.1693 328.877 34.5261 328.905C35.2257 328.962 35.9299 328.99 36.6342 328.999C38.0615 329.018 39.4888 328.948 40.9067 328.802C41.2447 328.769 41.578 328.727 41.9114 328.685C42.0288 328.671 42.057 328.666 42.0617 328.666C42.0664 328.666 42.057 328.666 42.0617 328.666C42.0664 328.666 42.0945 328.661 42.2119 328.643C42.4138 328.614 42.6204 328.582 42.8223 328.549C43.5547 328.431 44.2871 328.3 45.0148 328.15C46.5688 327.83 48.1041 327.436 49.6253 326.985C52.7945 326.046 55.9026 324.849 58.7947 323.548C65.5086 320.525 71.8656 316.745 77.9598 312.623C84.4436 308.238 90.6363 303.435 96.6131 298.383C102.477 293.425 108.135 288.223 113.6 282.833C118.365 278.134 122.994 273.288 127.431 268.274C129.239 266.232 131.014 264.161 132.741 262.048C133.478 261.147 134.206 260.236 134.92 259.316C134.957 259.269 135.07 259.119 135.093 259.091C135.065 259.128 135.037 259.166 135.004 259.203C135.084 259.095 135.103 259.072 135.093 259.091C135.136 259.039 135.173 258.987 135.216 258.931C135.38 258.715 135.544 258.504 135.704 258.288C135.99 257.907 136.277 257.522 136.558 257.133C136.798 256.804 137.023 256.466 137.258 256.133C137.671 256.424 138.089 256.715 138.507 256.997C138.338 256.353 138.169 255.71 138 255.072C137.76 255.433 137.502 255.781 137.258 256.133C132.915 253.1 128.793 249.7 124.816 246.217C122.769 244.442 120.769 242.583 118.811 240.681Z" fill="#180205"/>
<path d="M135.003 259.227C135.032 259.189 135.06 259.151 135.093 259.113C135.108 259.099 135.089 259.122 135.003 259.227Z" fill="#180205"/>
<path d="M138.507 257.024C138.089 256.743 137.671 256.452 137.258 256.16C137.507 255.808 137.76 255.456 138 255.099C138.174 255.738 138.343 256.381 138.507 257.024Z" fill="#180205"/>
<path d="M206.232 212.008C209.303 204.693 233.431 189.993 246.938 206.144C260.451 222.295 241.178 244.145 241.178 244.145L235.802 259.258C224.28 263.484 207.383 253.883 207.383 253.883L211.223 248.507C207.383 236.22 212.374 231.178 212.374 231.178C205.852 227.295 203.162 219.323 206.232 212.008Z" fill="#FFBEAE"/>
<path d="M192.025 260.339C192.025 260.339 203.566 255.109 207.002 250.334C207.002 250.334 217.374 256.189 238.492 256.959C238.492 256.959 231.196 294.979 211.416 304.965L192.025 260.339Z" fill="#E54728"/>
<path d="M76.0868 89.5199C75.9647 86.2522 72.7111 83.6417 69.5137 84.0455C69.1335 84.0924 68.8095 83.6887 68.8095 83.3412C68.8095 82.9234 69.1335 82.6839 69.5137 82.637C73.4951 82.1346 77.345 85.562 77.4953 89.5199C77.5281 90.426 76.1196 90.426 76.0868 89.5199Z" fill="#180205"/>
<path d="M108.675 93.6608C107.318 93.412 106.515 91.5856 106.881 89.5902C107.252 87.5949 108.651 86.177 110.008 86.4258C111.365 86.6746 112.168 88.501 111.801 90.4964C111.435 92.4965 110.031 93.9097 108.675 93.6608Z" fill="#180205"/>
<path d="M109.778 92.9771C109.249 92.9771 108.82 92.5483 108.82 92.0193C108.82 91.4904 109.249 91.0615 109.778 91.0615C110.307 91.0615 110.736 91.4904 110.736 92.0193C110.736 92.5483 110.307 92.9771 109.778 92.9771Z" fill="white"/>
<path d="M129.772 99.1236C128.481 98.6301 128.023 96.6926 128.748 94.7961C129.473 92.8996 131.107 91.7622 132.398 92.2558C133.689 92.7493 134.148 94.6868 133.423 96.5834C132.698 98.4799 131.063 99.6172 129.772 99.1236Z" fill="#180205"/>
<path d="M130.999 98.6251C130.478 98.5265 130.135 98.0288 130.229 97.5076C130.328 96.9865 130.826 96.6437 131.347 96.7377C131.868 96.8316 132.211 97.3339 132.117 97.8551C132.023 98.3762 131.521 98.7237 130.999 98.6251Z" fill="white"/>
<path d="M114.182 80.6721C113.623 79.672 112.708 78.9068 111.6 78.5922C110.388 78.2448 109.102 78.4842 108.05 79.165C107.29 79.658 106.581 78.442 107.341 77.949C108.693 77.071 110.421 76.7893 111.975 77.2354C113.421 77.6485 114.67 78.6486 115.398 79.9632C115.839 80.7566 114.623 81.4655 114.182 80.6721Z" fill="#180205"/>
<path d="M137.662 88.0547C137.103 87.0546 136.188 86.2893 135.08 85.9748C133.868 85.6273 132.582 85.8668 131.53 86.5476C130.769 87.0405 130.061 85.8245 130.821 85.3316C132.173 84.4536 133.901 84.1719 135.455 84.6179C136.901 85.0311 138.15 86.0311 138.878 87.3457C139.319 88.1345 138.103 88.8481 137.662 88.0547Z" fill="#180205"/>
<path d="M123.394 105.014C123.262 104.747 123.145 104.474 123.027 104.207C123.29 104.146 123.553 104.071 123.816 103.981C123.675 104.329 123.534 104.672 123.394 105.014Z" fill="#180205"/>
<path d="M124.192 105.338C122.718 105.841 121.173 105.939 119.642 105.69C118.75 105.545 119.131 104.188 120.018 104.334C121.032 104.498 122.046 104.442 123.032 104.207C123.15 104.479 123.267 104.751 123.398 105.014C123.539 104.672 123.68 104.324 123.821 103.981C123.563 104.071 123.3 104.146 123.032 104.207C121.826 101.441 121.253 98.4319 121.427 95.4083C121.478 94.5069 122.887 94.5022 122.835 95.4083C122.661 98.4789 123.258 101.545 124.619 104.305C124.821 104.728 124.643 105.188 124.192 105.338Z" fill="#180205"/>
<path d="M108.736 110.34C108.158 109.65 109.149 108.65 109.731 109.345C111.966 112.002 115.647 113.223 119.018 112.345C119.896 112.115 120.271 113.476 119.393 113.702C115.572 114.697 111.29 113.373 108.736 110.34Z" fill="#180205"/>
<path d="M90.3829 125.237C98.51 133.688 111.938 134.068 111.938 134.068L112.318 143.402C92.9417 140.406 90.3829 125.237 90.3829 125.237Z" fill="#180205"/>
<path d="M219.388 231.446C222.787 232.296 226.37 232.226 229.75 231.319C231.501 230.85 232.253 233.568 230.497 234.038C224.144 235.742 217.041 234.784 211.604 230.981C206.707 227.559 203.467 222.112 203.651 216.032C203.754 212.624 204.899 209.38 207.05 206.727C207.529 206.135 208.543 206.229 209.04 206.727C209.623 207.309 209.519 208.126 209.04 208.718C205.918 212.567 205.698 218.375 207.909 222.704C210.191 227.174 214.581 230.239 219.388 231.446Z" fill="#180205"/>
</g>
</svg>
