<svg width="732" height="177" viewBox="0 0 732 177" fill="none" xmlns="http://www.w3.org/2000/svg">
<g opacity="0.5">
<path d="M633.005 163.484C686.35 81.8989 611.438 36.2869 567.313 23.6789C484.1 2.26835 506.49 55.6987 430.702 68.1019C354.914 80.5052 420.393 110.913 421.873 156.106C423.353 201.298 333.349 156.749 338.079 239.783C342.809 322.817 490.105 363.319 458.228 250.415C426.35 137.511 566.324 265.465 633.005 163.484Z" stroke="#F4F4F4" stroke-width="1.99175"/>
<path d="M601.044 165.48C642.104 102.621 584.486 67.5047 550.544 57.8041C486.535 41.333 503.745 82.485 445.439 92.059C387.132 101.633 437.497 125.039 438.623 159.851C439.75 194.663 370.523 160.37 374.14 224.33C377.757 288.291 491.06 319.452 466.567 232.489C442.073 145.526 549.72 244.054 601.044 165.48Z" stroke="#F4F4F4" stroke-width="1.99175"/>
<path d="M662.62 161.549C727.388 62.4295 636.476 7.04156 582.924 -8.2625C481.93 -34.2495 509.092 30.6493 417.102 45.7359C325.112 60.8224 404.578 97.7436 406.363 152.641C408.147 207.538 298.918 153.446 304.637 254.31C310.357 355.174 489.125 404.336 450.464 267.194C411.802 130.052 581.66 285.448 662.62 161.549Z" stroke="#F4F4F4" stroke-width="1.99175"/>
<path d="M687.471 160.03C761.777 46.4197 657.408 -17.1104 595.935 -34.6742C480.006 -64.5019 511.205 9.90935 405.624 27.1726C300.043 44.4359 391.267 86.7912 393.335 149.728C395.402 212.664 270.01 150.613 276.61 266.248C283.21 381.883 488.418 438.307 443.994 281.07C399.57 123.833 594.588 302.042 687.471 160.03Z" stroke="#F4F4F4" stroke-width="1.99175"/>
<path d="M723.024 157.648C811.07 22.8646 687.51 -52.4352 614.724 -73.2371C477.459 -108.558 514.368 -20.3177 389.334 0.208398C264.3 20.7345 372.305 70.9262 374.723 145.571C377.141 220.216 228.685 146.68 236.445 283.827C244.205 420.974 487.178 487.796 434.649 301.326C382.119 114.855 612.967 326.127 723.024 157.648Z" stroke="#F4F4F4" stroke-width="1.99175"/>
<path d="M764.513 154.821C868.614 -4.77499 722.674 -93.8382 636.69 -118.42C474.534 -160.152 518.09 -55.7212 370.353 -31.3527C222.616 -6.98409 350.193 52.3671 353.007 140.724C355.821 229.082 180.465 142.121 189.555 304.459C198.646 466.798 485.676 545.758 423.72 325.06C361.764 104.361 634.386 354.316 764.513 154.821Z" stroke="#F4F4F4" stroke-width="1.99175"/>
</g>
</svg>
