<svg width="186" height="177" viewBox="0 0 186 177" fill="none" xmlns="http://www.w3.org/2000/svg">
<mask id="mask0_1078_6822" style="mask-type:alpha" maskUnits="userSpaceOnUse" x="0" y="-2" width="187" height="179">
<path d="M0 7.7163C0 2.35014 4.35013 -2 9.71629 -2H176.513C181.879 -2 186.229 2.35013 186.229 7.71629V166.416C186.229 171.782 181.879 176.132 176.513 176.132H9.71629C4.35013 176.132 0 171.782 0 166.416V7.7163Z" fill="#FF7F4D"/>
</mask>
<g mask="url(#mask0_1078_6822)">
<path d="M81.5664 190.425C84.2169 187.083 85.6792 184.301 86.4591 182.093L86.9892 182.422C89.7859 169.906 84.4088 157.733 84.4088 157.733L66.6142 152.749C66.6142 152.749 63.8723 161.331 61.6301 166.616C58.1418 171.317 52.4936 172.813 52.4936 172.813L49.0449 195.573C49.0419 195.576 73.9258 200.061 81.5664 190.425Z" fill="#E54728"/>
<path d="M107.23 134.024C118.679 140.681 130.112 144.035 143.331 143.207L180.209 124.763C184.904 111.526 188.538 97.6399 187.88 83.6108C187.222 69.5816 181.79 55.2934 170.951 46.3641C165.836 42.1508 159.734 39.2627 154.655 35.0037C147.471 28.9777 142.454 20.3104 134.201 15.8564C121.11 8.79153 102.779 11.7923 96.5064 25.6235C86.9861 24.6273 75.3301 34.0349 83.2297 59.8815C85.3927 66.9616 88.9663 76.3783 87.7934 83.6869C84.4087 104.805 91.7996 125.055 107.23 134.024Z" fill="#2E0031"/>
<path d="M190.852 129.954C186.523 98.8157 160.81 93.4052 160.81 93.4052L107.98 95.2727C107.98 95.2727 94.7738 95.8424 85.0554 107.891C75.3371 119.94 70.4779 124.799 70.1032 136.014C69.7284 147.228 76.4582 163.301 79.4468 168.907C82.4385 174.512 80.1932 189.465 80.1932 189.465C80.1932 189.465 120.404 227.966 180.71 219.491C178.964 214.333 177.124 208.865 176.612 204.429C189.715 184.612 194.456 155.901 190.852 129.954Z" fill="#FF572F"/>
<path d="M78.8247 187.828C78.7212 188.31 78.9679 188.815 79.4645 188.952C79.9215 189.077 80.4851 188.8 80.5887 188.313C81.5118 184.048 81.7372 179.642 81.2437 175.307C80.744 170.902 79.562 166.615 77.7158 162.585C76.6983 160.364 75.4705 158.244 74.0539 156.251C73.7675 155.849 73.2557 155.657 72.8048 155.922C72.4088 156.154 72.1895 156.769 72.4758 157.171C74.9161 160.599 76.7775 164.41 77.987 168.437C79.1934 172.443 79.7631 176.62 79.6595 180.803C79.6016 183.17 79.3244 185.516 78.8247 187.828Z" fill="#180205"/>
<path d="M145.233 55.2783C145.732 45.4351 137.135 46.806 134.89 51.4154C134.89 51.4154 124.922 51.7901 118.817 42.5683C112.711 33.3496 102.95 32.725 98.8405 38.0838C98.8405 38.0838 92.6531 36.9627 91.7787 46.3064C90.9074 55.65 94.6638 85.0549 113.595 84.6833C113.595 84.6833 113.461 91.9096 112.961 94.4016L107.977 95.2729C107.977 95.2729 111.852 107.157 130.53 107.858C153.83 108.729 160.807 93.4054 160.807 93.4054L147.1 90.167C147.1 90.167 137.882 77.9566 136.136 63.7537C136.136 63.7507 144.733 65.1216 145.233 55.2783Z" fill="#FFBEAE"/>
<path d="M148.764 105.444C152.273 103.881 155.527 101.773 158.403 99.2227C158.772 98.8936 158.738 98.263 158.403 97.9309C158.037 97.5654 157.48 97.6019 157.111 97.9309C152.237 102.251 146.18 105.154 139.786 106.355C133.354 107.561 126.664 106.875 120.559 104.557C117.144 103.259 113.899 101.422 111.045 99.1435C110.661 98.8358 110.128 98.7657 109.753 99.1435C109.433 99.4633 109.366 100.127 109.753 100.435C115.203 104.789 121.766 107.558 128.681 108.463C135.508 109.355 142.485 108.24 148.764 105.444Z" fill="#180205"/>
<path d="M146.487 171.023C147.13 168.617 147.776 166.21 148.419 163.803C149.442 159.983 150.463 156.165 151.487 152.345C151.721 151.468 151.956 150.593 152.19 149.716C152.495 148.58 150.731 148.092 150.427 149.229C149.784 151.635 149.138 154.042 148.495 156.449C147.471 160.269 146.451 164.086 145.427 167.907C145.193 168.784 144.958 169.658 144.723 170.536C144.419 171.675 146.183 172.16 146.487 171.023Z" fill="#180205"/>
<path d="M159.435 140.505L120.936 97.8934C120.936 97.8934 103.242 99.8859 89.3836 103.405C75.525 106.923 62.885 113.595 62.885 113.595C62.885 113.595 55.8963 106.865 43.6859 105.254C31.4755 103.642 14.5308 102.131 14.5308 102.131L9.37915 108.376L54.9001 130.975L157.382 150.293L159.435 140.505Z" fill="#FCF4E6"/>
<path d="M101.5 164.427L159.435 152.753L120.449 106.095L70.0843 116.956H60.0064L6.55542 107.896L43.5614 152.753L86.1729 162.559L101.5 164.427Z" fill="#0E6AC3"/>
<path d="M70.084 116.956H60.0061L86.1726 162.559L101.5 164.426L70.084 116.956Z" fill="#1058C1"/>
<path d="M90.657 157.735L98.6298 164.425C98.6298 164.425 107.352 160.261 111.09 156.115C111.09 156.115 104.61 151.593 103.614 140.629C102.618 129.665 97.2588 130.411 94.7668 131.657C92.2747 132.903 92.8993 136.641 89.408 137.388C85.9197 138.134 72.7131 129.165 66.8547 131.532C60.9993 133.899 62.3702 140.751 66.1083 145.114C69.8494 149.473 78.5715 156.029 90.657 157.735Z" fill="#FFBEAE"/>
<path d="M165.044 211.896C180.015 209.757 188.642 183.746 190.827 158.841C192.079 144.571 145.607 170.78 145.607 170.78C139.252 168.912 108.976 152.751 108.976 152.751C102.246 159.392 95.8943 163.678 95.8943 163.678C103.367 174.893 141.494 215.262 165.044 211.896Z" fill="#FF572F"/>
<path d="M148.879 171.51C148.784 171.47 149.049 171.581 148.879 171.51V171.51Z" fill="#180205"/>
<path d="M108.513 153.54C108.72 153.646 108.928 153.753 109.135 153.862C109.296 153.707 109.461 153.555 109.622 153.396C109.25 153.445 108.882 153.491 108.513 153.54Z" fill="#180205"/>
<path d="M109.135 153.863C108.927 153.757 108.72 153.65 108.513 153.54C108.882 153.492 109.25 153.446 109.622 153.397C109.46 153.556 109.296 153.705 109.135 153.863C110.143 154.387 111.154 154.914 112.166 155.435C115.139 156.974 118.119 158.503 121.101 160.023C124.858 161.937 128.62 163.838 132.398 165.714C135.968 167.487 139.551 169.245 143.164 170.93C145.586 172.06 148.026 173.245 150.558 174.113C150.725 174.171 150.896 174.226 151.07 174.278C152.2 174.613 152.681 172.849 151.557 172.514C150.649 172.246 149.772 171.874 148.898 171.512C148.891 171.509 148.888 171.509 148.882 171.506C148.788 171.466 149.05 171.576 148.882 171.506C148.876 171.503 148.876 171.503 148.87 171.5C148.806 171.472 148.739 171.445 148.675 171.417C148.511 171.347 148.346 171.277 148.185 171.207C147.865 171.07 147.548 170.93 147.231 170.787C146.512 170.467 145.799 170.141 145.086 169.812C141.58 168.194 138.11 166.5 134.649 164.788C130.844 162.908 127.054 160.998 123.27 159.073C120.157 157.489 117.046 155.895 113.942 154.29C112.464 153.525 110.999 152.724 109.506 151.99C109.485 151.981 109.464 151.968 109.445 151.956C109.08 151.767 108.638 151.804 108.336 152.099C104.592 155.789 100.571 159.228 96.2965 162.281C96.0132 162.485 95.7268 162.686 95.4374 162.884C95.0475 163.149 94.822 163.7 95.1084 164.133C96.7261 166.555 98.5966 168.819 100.485 171.033C103.2 174.214 106.048 177.282 108.982 180.261C112.461 183.798 116.065 187.213 119.794 190.482C123.724 193.928 127.797 197.215 132.044 200.259C136.081 203.15 140.288 205.831 144.73 208.058C148.648 210.023 152.794 211.692 157.117 212.499C161.071 213.237 165.257 213.301 169.017 211.704C173.477 209.812 176.865 206.029 179.457 202.047C182.753 196.984 185.014 191.25 186.775 185.495C188.801 178.875 190.144 172.057 191.046 165.196C191.268 163.502 191.46 161.802 191.625 160.099C191.674 159.609 191.171 159.186 190.711 159.186C190.178 159.186 189.846 159.606 189.797 160.099C189.136 166.915 188.021 173.693 186.321 180.328C184.795 186.29 182.817 192.207 179.914 197.654C177.657 201.892 174.698 206.144 170.683 208.749C168.901 209.907 167.116 210.647 164.992 210.979C164.947 210.985 164.758 211.013 164.742 211.016C164.764 211.013 164.782 211.01 164.803 211.01C164.752 211.016 164.739 211.019 164.742 211.016C164.669 211.025 164.593 211.034 164.52 211.043C164.289 211.071 164.057 211.092 163.825 211.11C163.372 211.147 162.915 211.165 162.458 211.171C161.531 211.183 160.605 211.138 159.685 211.043C159.466 211.022 159.25 210.994 159.033 210.967C158.957 210.958 158.939 210.955 158.936 210.955C158.933 210.955 158.939 210.955 158.936 210.955C158.933 210.955 158.914 210.952 158.838 210.94C158.707 210.921 158.573 210.9 158.442 210.879C157.967 210.803 157.492 210.717 157.02 210.62C156.011 210.413 155.015 210.157 154.028 209.864C151.971 209.255 149.955 208.478 148.078 207.634C143.722 205.672 139.597 203.22 135.642 200.545C131.435 197.7 127.417 194.583 123.538 191.305C119.733 188.088 116.062 184.712 112.516 181.215C109.424 178.165 106.42 175.021 103.541 171.768C102.368 170.442 101.217 169.099 100.096 167.728C99.6172 167.143 99.145 166.552 98.682 165.955C98.6576 165.924 98.5845 165.827 98.5692 165.809C98.5875 165.833 98.6058 165.857 98.6271 165.882C98.5753 165.812 98.5631 165.796 98.5692 165.809C98.5418 165.775 98.5174 165.742 98.49 165.705C98.3834 165.565 98.2768 165.428 98.1732 165.288C97.9873 165.041 97.8015 164.791 97.6187 164.538C97.4633 164.325 97.3171 164.106 97.1648 163.889C96.8967 164.078 96.6256 164.267 96.3544 164.45C96.4641 164.033 96.5738 163.615 96.6834 163.201C96.8388 163.435 97.0063 163.661 97.1648 163.889C99.9828 161.921 102.658 159.716 105.238 157.455C106.566 156.304 107.864 155.097 109.135 153.863Z" fill="#180205"/>
<path d="M98.6278 165.897C98.6093 165.872 98.5908 165.848 98.5692 165.823C98.5599 165.814 98.5723 165.829 98.6278 165.897Z" fill="#180205"/>
<path d="M96.3542 164.468C96.6254 164.285 96.8965 164.096 97.1646 163.907C97.0031 163.679 96.8386 163.45 96.6833 163.219C96.5705 163.633 96.4609 164.05 96.3542 164.468Z" fill="#180205"/>
<path d="M52.4081 135.257C50.4156 130.511 34.7596 120.972 25.9948 131.452C17.2269 141.932 29.7329 156.111 29.7329 156.111L33.2211 165.918C40.6973 168.659 51.6616 162.429 51.6616 162.429L49.1696 158.941C51.6617 150.968 48.4232 147.696 48.4232 147.696C52.6548 145.177 54.4005 140.004 52.4081 135.257Z" fill="#FFBEAE"/>
<path d="M61.6267 166.619C61.6267 166.619 54.1384 163.225 51.9083 160.127C51.9083 160.127 45.1785 163.926 31.4753 164.426C31.4753 164.426 36.2096 189.096 49.0446 195.576L61.6267 166.619Z" fill="#E54728"/>
<path d="M136.858 55.7778C136.937 53.6575 139.049 51.9636 141.123 52.2256C141.37 52.2561 141.58 51.9941 141.58 51.7686C141.58 51.4975 141.37 51.3421 141.123 51.3116C138.54 50.9857 136.042 53.2096 135.944 55.7778C135.923 56.3658 136.837 56.3658 136.858 55.7778Z" fill="#180205"/>
<path d="M115.712 58.4643C116.592 58.3028 117.113 57.1177 116.875 55.823C116.635 54.5282 115.727 53.6081 114.846 53.7696C113.966 53.9311 113.445 55.1162 113.683 56.4109C113.92 57.7088 114.831 58.6258 115.712 58.4643Z" fill="#180205"/>
<path d="M114.995 58.0207C115.338 58.0207 115.617 57.7424 115.617 57.3992C115.617 57.056 115.338 56.7777 114.995 56.7777C114.652 56.7777 114.374 57.056 114.374 57.3992C114.374 57.7424 114.652 58.0207 114.995 58.0207Z" fill="white"/>
<path d="M102.021 62.0089C102.859 61.6886 103.156 60.4314 102.686 59.2008C102.215 57.9702 101.155 57.2322 100.317 57.5525C99.4796 57.8727 99.1819 59.1299 99.6524 60.3605C100.123 61.5912 101.183 62.3291 102.021 62.0089Z" fill="#180205"/>
<path d="M101.225 61.6854C101.563 61.6215 101.785 61.2985 101.724 60.9604C101.661 60.6222 101.338 60.3998 100.999 60.4607C100.661 60.5217 100.439 60.8476 100.5 61.1858C100.561 61.524 100.887 61.7494 101.225 61.6854Z" fill="white"/>
<path d="M112.138 50.0363C112.5 49.3874 113.094 48.8908 113.813 48.6867C114.599 48.4612 115.434 48.6166 116.117 49.0584C116.61 49.3783 117.07 48.5892 116.577 48.2693C115.699 47.6996 114.578 47.5168 113.57 47.8063C112.631 48.0744 111.821 48.7233 111.349 49.5763C111.062 50.0911 111.851 50.5511 112.138 50.0363Z" fill="#180205"/>
<path d="M96.9031 54.827C97.2657 54.178 97.8597 53.6815 98.5787 53.4774C99.3647 53.2519 100.199 53.4073 100.882 53.849C101.375 54.1689 101.835 53.3799 101.342 53.06C100.465 52.4903 99.3434 52.3075 98.335 52.5969C97.3967 52.865 96.5863 53.5139 96.1141 54.3669C95.8277 54.8787 96.6168 55.3418 96.9031 54.827Z" fill="#180205"/>
<path d="M106.161 65.8324C106.247 65.6586 106.323 65.4817 106.399 65.3079C106.228 65.2682 106.057 65.2194 105.887 65.1615C105.978 65.3872 106.07 65.6098 106.161 65.8324Z" fill="#180205"/>
<path d="M105.643 66.0418C106.6 66.3678 107.602 66.4317 108.595 66.2703C109.174 66.1758 108.927 65.2954 108.351 65.3898C107.693 65.4965 107.035 65.4599 106.396 65.3076C106.319 65.4843 106.243 65.661 106.158 65.8316C106.066 65.6092 105.975 65.3837 105.884 65.1613C106.051 65.2192 106.222 65.268 106.396 65.3076C107.178 63.5132 107.55 61.5604 107.437 59.5984C107.404 59.0135 106.49 59.0104 106.523 59.5984C106.636 61.5908 106.249 63.5802 105.366 65.3716C105.235 65.6457 105.351 65.9443 105.643 66.0418Z" fill="#180205"/>
<path d="M115.672 69.287C116.047 68.8391 115.404 68.1902 115.026 68.6411C113.576 70.3654 111.187 71.1575 109 70.5878C108.43 70.4386 108.187 71.322 108.756 71.4683C111.236 72.1141 114.015 71.255 115.672 69.287Z" fill="#180205"/>
<path d="M127.581 78.9539C122.307 84.4376 113.594 84.6843 113.594 84.6843L113.347 90.7408C125.92 88.7971 127.581 78.9539 127.581 78.9539Z" fill="#180205"/>
<path d="M43.8719 147.871C41.6663 148.422 39.3418 148.377 37.1483 147.789C36.0119 147.484 35.5245 149.248 36.6639 149.553C40.7858 150.659 45.3952 150.037 48.923 147.569C52.1006 145.348 54.2027 141.814 54.0839 137.869C54.0168 135.657 53.2735 133.552 51.8782 131.831C51.5674 131.447 50.9094 131.508 50.5865 131.831C50.2087 132.209 50.2757 132.739 50.5865 133.123C52.6124 135.621 52.7556 139.389 51.3206 142.198C49.84 145.099 46.9916 147.088 43.8719 147.871Z" fill="#180205"/>
</g>
</svg>
