<svg width="81" height="85" viewBox="0 0 81 85" fill="none" xmlns="http://www.w3.org/2000/svg">
<mask id="mask0_1089_7817" style="mask-type:alpha" maskUnits="userSpaceOnUse" x="0" y="0" width="81" height="85">
<rect width="80.6633" height="85" rx="20" fill="#3F51B5"/>
</mask>
<g mask="url(#mask0_1089_7817)">
<g clip-path="url(#clip0_1089_7817)">
<path d="M40.4487 41.514C39.7435 36.041 34.7351 32.176 29.2621 32.8812C23.7891 33.5865 19.9241 38.5949 20.6293 44.0678C21.3346 49.5408 26.343 53.4058 31.8159 52.7006C37.2889 51.9954 41.1539 46.987 40.4487 41.514Z" fill="#D49100"/>
<path d="M33.0136 51.0631C38.3009 49.4836 41.3068 43.917 39.7273 38.6296C38.1478 33.3423 32.5811 30.3365 27.2938 31.916C22.0065 33.4955 19.0006 39.0621 20.5801 44.3495C22.1596 49.6368 27.7263 52.6426 33.0136 51.0631Z" fill="#FFC60B"/>
<path d="M32.2728 48.583C36.1903 47.4127 38.4174 43.2882 37.2472 39.3706C36.0769 35.4531 31.9523 33.226 28.0348 34.3963C24.1172 35.5666 21.8901 39.6911 23.0604 43.6086C24.2307 47.5262 28.3552 49.7533 32.2728 48.583Z" fill="#E89F00"/>
<path d="M28.317 35.3417C30.117 34.8023 32.0548 34.9679 33.7372 35.8049C35.4197 36.6419 36.7206 38.0875 37.3762 39.8486C37.3411 39.6857 37.3 39.5258 37.2531 39.3687C36.9908 38.4186 36.5415 37.5304 35.9315 36.7562C35.3215 35.982 34.5631 35.3373 33.7007 34.86C32.8384 34.3826 31.8894 34.0822 30.9095 33.9763C29.9296 33.8705 28.9383 33.9612 27.9939 34.2434C27.0495 34.5255 26.1709 34.9933 25.4096 35.6193C24.6484 36.2453 24.0197 37.017 23.5605 37.8892C23.1012 38.7613 22.8207 39.7163 22.7353 40.6983C22.65 41.6802 22.7614 42.6693 23.0632 43.6076C23.1105 43.7657 23.1559 43.9176 23.2235 44.0764C22.8069 42.246 23.1012 40.3257 24.0468 38.7041C24.9924 37.0824 26.5188 35.8806 28.317 35.3417Z" fill="#D49100"/>
<path d="M53.8974 31.4992C59.1847 29.9197 62.1906 24.353 60.6111 19.0657C59.0316 13.7783 53.4649 10.7725 48.1776 12.352C42.8902 13.9315 39.8844 19.4982 41.4639 24.7855C43.0434 30.0728 48.6101 33.0786 53.8974 31.4992Z" fill="#D49100"/>
<path d="M56.952 28.371C61.2324 24.8883 61.8791 18.5951 58.3965 14.3147C54.9139 10.0343 48.6207 9.38754 44.3402 12.8702C40.0598 16.3528 39.4131 22.646 42.8957 26.9264C46.3783 31.2068 52.6715 31.8536 56.952 28.371Z" fill="#FFC60B"/>
<path d="M55.3184 26.3634C58.4899 23.783 58.9691 19.1201 56.3887 15.9486C53.8083 12.7771 49.1455 12.2979 45.974 14.8783C42.8025 17.4587 42.3233 22.1216 44.9037 25.2931C47.4841 28.4646 52.1469 28.9438 55.3184 26.3634Z" fill="#E89F00"/>
<path d="M48.8119 14.4754C50.6111 13.9378 52.5474 14.104 54.2286 14.9404C55.9099 15.7767 57.2105 17.2208 57.8671 18.98C57.8199 18.8219 57.7931 18.6644 57.744 18.5001C57.1507 16.6557 55.8584 15.1172 54.144 14.2145C52.4297 13.3118 50.4299 13.1169 48.5734 13.6714C46.717 14.226 45.1518 15.4859 44.2135 17.181C43.2752 18.8761 43.0385 20.8715 43.5541 22.7391C43.6023 22.9003 43.6468 23.0491 43.7144 23.2078C43.2986 21.3772 43.5937 19.457 44.5401 17.8358C45.4865 16.2145 47.0134 15.0134 48.8119 14.4754Z" fill="#D49100"/>
<path d="M68.6145 30.7091L11.8365 47.6703C11.0191 47.9145 10.2578 48.3173 9.59619 48.8558C8.93454 49.3942 8.38547 50.0578 7.98035 50.8085C7.57522 51.5592 7.32198 52.3824 7.23509 53.231C7.1482 54.0797 7.22936 54.9371 7.47394 55.7544L21.4715 102.612C21.2778 101.962 21.3425 101.263 21.652 100.66C21.9615 100.058 22.4919 99.5977 23.1324 99.3767L83.7238 81.2763C85.374 80.7834 86.7608 79.655 87.5791 78.1396C88.3974 76.6241 88.5802 74.8456 88.0872 73.1954L76.6995 35.0747C76.2062 33.4236 75.0773 32.0361 73.5611 31.2174C72.0449 30.3987 70.2655 30.2158 68.6145 30.7091Z" fill="#00AEEF"/>
<path d="M79.3162 79.6349L75.2548 80.8482C75.1643 80.882 75.0678 80.8969 74.9713 80.8919C74.8747 80.887 74.7803 80.8622 74.6937 80.8192C74.6072 80.7762 74.5304 80.7158 74.4681 80.6419C74.4059 80.568 74.3595 80.482 74.3318 80.3894C74.3041 80.2968 74.2958 80.1995 74.3073 80.1035C74.3188 80.0076 74.3499 79.915 74.3987 79.8315C74.4475 79.7481 74.5129 79.6756 74.5908 79.6185C74.6688 79.5614 74.7577 79.5209 74.852 79.4995L78.8823 78.2956C79.0627 78.2408 79.2574 78.2594 79.4241 78.3475C79.5908 78.4356 79.716 78.5859 79.7724 78.7658C79.8002 78.8528 79.8104 78.9445 79.8025 79.0355C79.7945 79.1265 79.7686 79.215 79.7261 79.2958C79.6837 79.3767 79.6256 79.4483 79.5552 79.5065C79.4848 79.5647 79.4036 79.6084 79.3162 79.6349ZM71.1935 82.0614L67.1601 83.2663C67.0695 83.3002 66.973 83.3151 66.8765 83.3101C66.78 83.3051 66.6855 83.2803 66.599 83.2373C66.5124 83.1943 66.4356 83.134 66.3734 83.06C66.3111 82.9861 66.2647 82.9002 66.237 82.8075C66.2094 82.7149 66.201 82.6176 66.2125 82.5217C66.224 82.4257 66.2552 82.3331 66.3039 82.2497C66.3527 82.1662 66.4181 82.0937 66.4961 82.0366C66.5741 81.9795 66.6629 81.939 66.7572 81.9177L70.803 80.7091C70.8936 80.6752 70.9901 80.6603 71.0866 80.6653C71.1831 80.6703 71.2776 80.695 71.3641 80.7381C71.4507 80.7811 71.5275 80.8414 71.5897 80.9153C71.652 80.9893 71.6984 81.0752 71.7261 81.1678C71.7537 81.2604 71.7621 81.3577 71.7506 81.4537C71.7391 81.5497 71.7079 81.6422 71.6592 81.7257C71.6104 81.8091 71.545 81.8816 71.467 81.9388C71.389 81.9959 71.3002 82.0364 71.2059 82.0577L71.1935 82.0614ZM63.0987 84.4795L59.0684 85.6835C58.9779 85.7174 58.8814 85.7323 58.7849 85.7273C58.6883 85.7223 58.5939 85.6975 58.5073 85.6545C58.4208 85.6115 58.344 85.5512 58.2817 85.4772C58.2194 85.4033 58.173 85.3174 58.1454 85.2248C58.1177 85.1322 58.1094 85.0348 58.1209 84.9389C58.1324 84.8429 58.1635 84.7503 58.2123 84.6669C58.2611 84.5835 58.3265 84.5109 58.4044 84.4538C58.4824 84.3967 58.5713 84.3562 58.6655 84.3349L62.6959 83.1309C62.7864 83.097 62.8829 83.0821 62.9794 83.0871C63.076 83.0921 63.1704 83.1169 63.257 83.1599C63.3435 83.2029 63.4203 83.2633 63.4826 83.3372C63.5448 83.4111 63.5912 83.497 63.6189 83.5897C63.6466 83.6823 63.6549 83.7796 63.6434 83.8755C63.6319 83.9715 63.6008 84.0641 63.552 84.1475C63.5032 84.231 63.4378 84.3035 63.3599 84.3606C63.2819 84.4177 63.193 84.4582 63.0987 84.4795ZM55.004 86.8977L50.9706 88.1026C50.88 88.1364 50.7835 88.1513 50.687 88.1464C50.5905 88.1414 50.496 88.1166 50.4095 88.0736C50.3229 88.0306 50.2461 87.9702 50.1839 87.8963C50.1216 87.8224 50.0752 87.7364 50.0475 87.6438C50.0199 87.5512 50.0115 87.4539 50.023 87.3579C50.0345 87.262 50.0656 87.1694 50.1144 87.086C50.1632 87.0025 50.2286 86.93 50.3066 86.8729C50.3845 86.8158 50.4734 86.7753 50.5677 86.754L54.6135 85.5453C54.704 85.5115 54.8006 85.4966 54.8971 85.5016C54.9936 85.5065 55.0881 85.5313 55.1746 85.5743C55.2612 85.6173 55.338 85.6777 55.4002 85.7516C55.4625 85.8255 55.5089 85.9115 55.5366 86.0041C55.5642 86.0967 55.5726 86.194 55.5611 86.29C55.5495 86.3859 55.5184 86.4785 55.4697 86.562C55.4209 86.6454 55.3555 86.7179 55.2775 86.775C55.1995 86.8322 55.1107 86.8726 55.0164 86.894L55.004 86.8977ZM46.9092 89.3158L42.8758 90.5207C42.7853 90.5546 42.6888 90.5695 42.5922 90.5645C42.4957 90.5595 42.4012 90.5347 42.3147 90.4917C42.2281 90.4487 42.1514 90.3884 42.0891 90.3144C42.0268 90.2405 41.9804 90.1546 41.9528 90.062C41.9251 89.9694 41.9168 89.8721 41.9283 89.7761C41.9398 89.6801 41.9709 89.5875 42.0197 89.5041C42.0684 89.4207 42.1338 89.3481 42.2118 89.291C42.2898 89.2339 42.3787 89.1934 42.4729 89.1721L46.5188 87.9635C46.6093 87.9296 46.7058 87.9147 46.8023 87.9197C46.8989 87.9247 46.9933 87.9495 47.0799 87.9925C47.1664 88.0355 47.2432 88.0958 47.3055 88.1698C47.3677 88.2437 47.4141 88.3296 47.4418 88.4222C47.4695 88.5148 47.4778 88.6121 47.4663 88.7081C47.4548 88.8041 47.4237 88.8967 47.3749 88.9801C47.3261 89.0635 47.2607 89.1361 47.1828 89.1932C47.1048 89.2503 47.0159 89.2908 46.9216 89.3121L46.9092 89.3158ZM38.8269 91.7302L34.7811 92.9388C34.6905 92.9727 34.594 92.9876 34.4975 92.9826C34.401 92.9777 34.3065 92.9529 34.2199 92.9099C34.1334 92.8668 34.0566 92.8065 33.9943 92.7326C33.9321 92.6586 33.8857 92.5727 33.858 92.4801C33.8303 92.3875 33.822 92.2902 33.8335 92.1942C33.845 92.0983 33.8761 92.0057 33.9249 91.9222C33.9737 91.8388 34.0391 91.7663 34.1171 91.7092C34.195 91.652 34.2839 91.6116 34.3782 91.5902L38.424 90.3816C38.5145 90.3478 38.6111 90.3329 38.7076 90.3378C38.8041 90.3428 38.8986 90.3676 38.9851 90.4106C39.0717 90.4536 39.1485 90.514 39.2107 90.5879C39.273 90.6618 39.3194 90.7478 39.347 90.8404C39.3747 90.933 39.383 91.0303 39.3715 91.1262C39.36 91.2222 39.3289 91.3148 39.2802 91.3982C39.2314 91.4817 39.166 91.5542 39.088 91.6113C39.01 91.6684 38.9211 91.7089 38.8269 91.7302ZM30.7321 94.1484L26.7018 95.3524C26.6113 95.3862 26.5148 95.4011 26.4182 95.3961C26.3217 95.3912 26.2272 95.3664 26.1407 95.3234C26.0541 95.2804 25.9773 95.22 25.9151 95.1461C25.8528 95.0722 25.8064 94.9862 25.7788 94.8936C25.7511 94.801 25.7428 94.7037 25.7543 94.6077C25.7658 94.5118 25.7969 94.4192 25.8457 94.3357C25.8944 94.2523 25.9598 94.1798 26.0378 94.1227C26.1158 94.0656 26.2047 94.0251 26.2989 94.0037L30.3293 92.7998C30.4198 92.7659 30.5163 92.751 30.6128 92.756C30.7093 92.761 30.8038 92.7857 30.8904 92.8287C30.9769 92.8718 31.0537 92.9321 31.116 93.006C31.1782 93.08 31.2246 93.1659 31.2523 93.2585C31.28 93.3511 31.2883 93.4484 31.2768 93.5444C31.2653 93.6404 31.2342 93.7329 31.1854 93.8164C31.1366 93.8998 31.0712 93.9723 30.9932 94.0295C30.9153 94.0866 30.8264 94.127 30.7321 94.1484ZM82.7559 77.2566C82.6133 77.2994 82.4608 77.2961 82.3203 77.247C82.1797 77.1979 82.0583 77.1056 81.9734 76.9832C81.8885 76.8609 81.8445 76.7149 81.8477 76.566C81.8509 76.4172 81.9011 76.2732 81.9911 76.1546C82.7589 75.1418 83.1893 73.9136 83.2215 72.6431C83.2191 72.5475 83.2362 72.4525 83.2716 72.3637C83.3071 72.2749 83.3603 72.1943 83.4279 72.1267C83.4954 72.0591 83.5761 72.0059 83.6649 71.9704C83.7536 71.9349 83.8487 71.9179 83.9442 71.9203C84.0398 71.9226 84.1339 71.9444 84.2208 71.9843C84.3077 72.0241 84.3856 72.0813 84.4497 72.1521C84.5138 72.223 84.5629 72.3062 84.5939 72.3967C84.6249 72.4871 84.6372 72.5829 84.6301 72.6782C84.5903 74.2446 84.06 75.7589 83.1138 77.0078C83.0201 77.1306 82.8891 77.2195 82.7404 77.2612L82.7559 77.2566ZM83.241 69.2266C83.0623 69.28 82.8697 69.2604 82.7054 69.1722C82.5411 69.0839 82.4184 68.9342 82.3642 68.7557L81.1574 64.7161C81.1039 64.5369 81.1237 64.3437 81.2126 64.1791C81.3015 64.0145 81.4521 63.8919 81.6314 63.8384C81.8106 63.7848 82.0038 63.8047 82.1684 63.8935C82.333 63.9824 82.4556 64.1331 82.5091 64.3123L83.7187 68.3612C83.7451 68.4512 83.7534 68.5455 83.7429 68.6386C83.7325 68.7318 83.7036 68.8219 83.658 68.9038C83.6123 68.9856 83.5508 69.0576 83.477 69.1154C83.4032 69.1732 83.3187 69.2158 83.2283 69.2405L83.241 69.2266ZM75.9866 44.9423C75.8079 44.9957 75.6153 44.9761 75.451 44.8879C75.2866 44.7997 75.164 44.6499 75.1098 44.4715L73.903 40.4318C73.8495 40.2526 73.8693 40.0594 73.9582 39.8948C74.0471 39.7302 74.1977 39.6076 74.377 39.5541C74.5562 39.5005 74.7494 39.5204 74.914 39.6093C75.0786 39.6982 75.2012 39.8488 75.2547 40.028L76.4642 44.077C76.4907 44.1669 76.4989 44.2612 76.4885 44.3543C76.4781 44.4475 76.4492 44.5376 76.4036 44.6195C76.3579 44.7014 76.2964 44.7733 76.2226 44.8311C76.1488 44.889 76.0643 44.9315 75.9739 44.9562L75.9866 44.9423ZM72.6893 37.2959C72.5729 37.3313 72.4494 37.3359 72.3307 37.3092C72.212 37.2825 72.1023 37.2254 72.0123 37.1436C71.0701 36.2915 69.885 35.7552 68.623 35.6099C68.4488 35.5762 68.2937 35.4781 68.1886 35.3352C68.0835 35.1923 68.0362 35.0151 68.0559 34.8388C68.0757 34.6625 68.1611 34.5001 68.2952 34.384C68.4293 34.2679 68.6023 34.2066 68.7796 34.2123C70.3365 34.3916 71.7985 35.0529 72.9613 36.1037C73.0541 36.1872 73.123 36.294 73.1608 36.413C73.1986 36.5321 73.2039 36.659 73.1763 36.7808C73.1487 36.9026 73.0891 37.0149 73.0037 37.1059C72.9182 37.197 72.81 37.2637 72.6902 37.299L72.6893 37.2959ZM64.7653 36.2726L60.7195 37.4812C60.6289 37.5151 60.5324 37.53 60.4359 37.525C60.3394 37.52 60.2449 37.4953 60.1584 37.4522C60.0718 37.4092 59.995 37.3489 59.9328 37.275C59.8705 37.201 59.8241 37.1151 59.7964 37.0225C59.7688 36.9299 59.7604 36.8326 59.7719 36.7366C59.7834 36.6406 59.8146 36.5481 59.8633 36.4646C59.9121 36.3812 59.9775 36.3087 60.0555 36.2515C60.1335 36.1944 60.2223 36.1539 60.3166 36.1326L64.3624 34.924C64.453 34.8901 64.5495 34.8752 64.646 34.8802C64.7425 34.8852 64.837 34.91 64.9235 34.953C65.0101 34.996 65.0869 35.0563 65.1491 35.1303C65.2114 35.2042 65.2578 35.2901 65.2855 35.3827C65.3131 35.4754 65.3215 35.5727 65.31 35.6686C65.2985 35.7646 65.2674 35.8572 65.2186 35.9406C65.1698 36.0241 65.1044 36.0966 65.0264 36.1537C64.9484 36.2108 64.8596 36.2513 64.7653 36.2726ZM56.6705 38.6908L52.6402 39.8947C52.5497 39.9286 52.4532 39.9435 52.3566 39.9385C52.2601 39.9335 52.1657 39.9088 52.0791 39.8658C51.9926 39.8227 51.9158 39.7624 51.8535 39.6885C51.7912 39.6145 51.7448 39.5286 51.7172 39.436C51.6895 39.3434 51.6812 39.2461 51.6927 39.1501C51.7042 39.0541 51.7353 38.9616 51.7841 38.8781C51.8328 38.7947 51.8983 38.7222 51.9762 38.665C52.0542 38.6079 52.1431 38.5675 52.2373 38.5461L56.2677 37.3421C56.3582 37.3083 56.4547 37.2934 56.5512 37.2984C56.6478 37.3033 56.7422 37.3281 56.8288 37.3711C56.9153 37.4141 56.9921 37.4745 57.0544 37.5484C57.1166 37.6223 57.163 37.7083 57.1907 37.8009C57.2184 37.8935 57.2267 37.9908 57.2152 38.0868C57.2037 38.1827 57.1726 38.2753 57.1238 38.3588C57.075 38.4422 57.0096 38.5147 56.9317 38.5718C56.8537 38.6289 56.7648 38.6694 56.6705 38.6908ZM48.5758 41.1089L44.53 42.3175C44.4394 42.3514 44.3429 42.3663 44.2464 42.3613C44.1499 42.3563 44.0554 42.3315 43.9688 42.2885C43.8823 42.2455 43.8055 42.1852 43.7432 42.1112C43.681 42.0373 43.6346 41.9514 43.6069 41.8588C43.5793 41.7662 43.5709 41.6688 43.5824 41.5729C43.5939 41.4769 43.625 41.3843 43.6738 41.3009C43.7226 41.2175 43.788 41.1449 43.866 41.0878C43.9439 41.0307 44.0328 40.9902 44.1271 40.9689L48.1729 39.7603C48.2634 39.7264 48.36 39.7115 48.4565 39.7165C48.553 39.7215 48.6475 39.7462 48.734 39.7893C48.8206 39.8323 48.8974 39.8926 48.9596 39.9666C49.0219 40.0405 49.0683 40.1264 49.096 40.219C49.1236 40.3116 49.132 40.4089 49.1204 40.5049C49.1089 40.6009 49.0778 40.6934 49.0291 40.7769C48.9803 40.8603 48.9149 40.9329 48.8369 40.99C48.7589 41.0471 48.6701 41.0876 48.5758 41.1089ZM40.481 43.527L36.4507 44.731C36.3602 44.7649 36.2637 44.7798 36.1671 44.7748C36.0706 44.7698 35.9761 44.745 35.8896 44.702C35.803 44.659 35.7263 44.5987 35.664 44.5247C35.6017 44.4508 35.5553 44.3649 35.5277 44.2723C35.5 44.1797 35.4917 44.0824 35.5032 43.9864C35.5147 43.8904 35.5458 43.7978 35.5946 43.7144C35.6433 43.631 35.7087 43.5584 35.7867 43.5013C35.8647 43.4442 35.9536 43.4037 36.0478 43.3824L40.0782 42.1784C40.1687 42.1446 40.2652 42.1296 40.3617 42.1346C40.4582 42.1396 40.5527 42.1644 40.6393 42.2074C40.7258 42.2504 40.8026 42.3108 40.8649 42.3847C40.9271 42.4586 40.9735 42.5446 41.0012 42.6372C41.0289 42.7298 41.0372 42.8271 41.0257 42.923C41.0142 43.019 40.9831 43.1116 40.9343 43.195C40.8855 43.2785 40.8201 43.351 40.7421 43.4081C40.6642 43.4652 40.5753 43.5057 40.481 43.527ZM32.3863 45.9452L28.356 47.1491C28.2654 47.183 28.1689 47.1979 28.0724 47.1929C27.9759 47.188 27.8814 47.1632 27.7948 47.1202C27.7083 47.0772 27.6315 47.0168 27.5692 46.9429C27.507 46.869 27.4606 46.783 27.4329 46.6904C27.4052 46.5978 27.3969 46.5005 27.4084 46.4045C27.4199 46.3086 27.451 46.216 27.4998 46.1325C27.5486 46.0491 27.614 45.9766 27.692 45.9195C27.7699 45.8623 27.8588 45.8219 27.9531 45.8005L31.9834 44.5966C32.0739 44.5627 32.1705 44.5478 32.267 44.5528C32.3635 44.5578 32.458 44.5825 32.5445 44.6255C32.6311 44.6686 32.7079 44.7289 32.7701 44.8028C32.8324 44.8768 32.8788 44.9627 32.9064 45.0553C32.9341 45.1479 32.9424 45.2452 32.9309 45.3412C32.9194 45.4371 32.8883 45.5297 32.8395 45.6132C32.7908 45.6966 32.7254 45.7691 32.6474 45.8262C32.5694 45.8834 32.4805 45.9238 32.3863 45.9452ZM24.2915 48.3633L20.2612 49.5673C20.1707 49.6012 20.0742 49.6161 19.9776 49.6111C19.8811 49.6061 19.7866 49.5813 19.7001 49.5383C19.6135 49.4953 19.5367 49.4349 19.4745 49.361C19.4122 49.2871 19.3658 49.2012 19.3382 49.1085C19.3105 49.0159 19.3022 48.9186 19.3137 48.8227C19.3252 48.7267 19.3563 48.6341 19.4051 48.5507C19.4538 48.4672 19.5192 48.3947 19.5972 48.3376C19.6752 48.2805 19.7641 48.24 19.8583 48.2187L23.8887 47.0147C23.9792 46.9808 24.0757 46.9659 24.1722 46.9709C24.2687 46.9759 24.3632 47.0007 24.4498 47.0437C24.5363 47.0867 24.6131 47.147 24.6754 47.221C24.7376 47.2949 24.784 47.3808 24.8117 47.4734C24.8394 47.5661 24.8477 47.6634 24.8362 47.7593C24.8247 47.8553 24.7936 47.9479 24.7448 48.0313C24.696 48.1147 24.6306 48.1873 24.5526 48.2444C24.4747 48.3015 24.3858 48.342 24.2915 48.3633ZM16.1968 50.7814L12.1664 51.9854C12.0759 52.0193 11.9794 52.0342 11.8829 52.0292C11.7863 52.0242 11.6919 51.9995 11.6053 51.9564C11.5188 51.9134 11.442 51.8531 11.3797 51.7792C11.3175 51.7052 11.2711 51.6193 11.2434 51.5267C11.2157 51.4341 11.2074 51.3368 11.2189 51.2408C11.2304 51.1448 11.2615 51.0523 11.3103 50.9688C11.3591 50.8854 11.4245 50.8129 11.5024 50.7557C11.5804 50.6986 11.6693 50.6581 11.7636 50.6368L15.7939 49.4328C15.8844 49.399 15.9809 49.3841 16.0775 49.3891C16.174 49.394 16.2685 49.4188 16.355 49.4618C16.4416 49.5048 16.5183 49.5652 16.5806 49.6391C16.6429 49.713 16.6893 49.799 16.7169 49.8916C16.7446 49.9842 16.7529 50.0815 16.7414 50.1775C16.7299 50.2734 16.6988 50.366 16.65 50.4494C16.6013 50.5329 16.5359 50.6054 16.4579 50.6625C16.3799 50.7196 16.291 50.7601 16.1968 50.7814Z" fill="#8CE0FF"/>
<path d="M69.3954 50.7207L81.8894 46.9884C82.6402 46.7642 83.4492 46.8473 84.1386 47.2195C84.828 47.5918 85.3413 48.2227 85.5655 48.9734L87.8753 56.7054C88.0996 57.4561 88.0164 58.2652 87.6442 58.9546C87.2719 59.644 86.6411 60.1572 85.8904 60.3815L73.3963 64.1138C71.9985 64.5314 70.4921 64.3766 69.2084 63.6834C67.9248 62.9903 66.969 61.8156 66.5515 60.4178L65.7059 57.5873C65.2883 56.1895 65.4432 54.6831 66.1363 53.3994C66.8294 52.1157 68.0041 51.16 69.4019 50.7424L69.3954 50.7207Z" fill="#0091C7"/>
<path d="M75.7055 59.3074C77.4554 58.7847 78.4502 56.9423 77.9275 55.1924C77.4047 53.4425 75.5624 52.4477 73.8125 52.9705C72.0626 53.4932 71.0678 55.3356 71.5906 57.0855C72.1133 58.8353 73.9556 59.8301 75.7055 59.3074Z" fill="#0089BD"/>
<path d="M77.8407 55.0422C77.6051 53.2311 75.946 51.954 74.1349 52.1896C72.3239 52.4252 71.0468 54.0843 71.2824 55.8954C71.518 57.7064 73.1771 58.9836 74.9882 58.7479C76.7992 58.5123 78.0763 56.8532 77.8407 55.0422Z" fill="#00AEEF"/>
<path d="M83.7219 81.2704L23.1306 99.3708C22.7685 99.496 22.4384 99.6995 22.1639 99.9668C22.0957 100.031 22.0317 100.1 21.9721 100.173L21.9392 100.21C21.8705 100.294 21.8081 100.384 21.7526 100.478L21.7278 100.519C21.6777 100.603 21.6326 100.69 21.5927 100.779L21.5697 100.826C21.5275 100.928 21.4908 101.031 21.4596 101.136L21.4512 101.176C21.4247 101.269 21.4046 101.364 21.3911 101.461L21.3817 101.531C21.3661 101.64 21.3582 101.749 21.3581 101.859C21.3581 101.859 21.3636 101.877 21.3664 101.887C21.3671 101.987 21.3746 102.088 21.3887 102.187C21.397 102.215 21.4053 102.243 21.4127 102.268C21.4316 102.38 21.4568 102.491 21.4883 102.6C21.6848 103.267 22.1375 103.829 22.7473 104.162C23.3572 104.496 24.0744 104.574 24.7419 104.38L81.6315 87.3857C84.2397 86.6066 86.4315 84.8233 87.7248 82.4281C89.0181 80.033 89.3069 77.2221 88.5278 74.614L88.1009 73.1848C88.3454 74.0032 88.426 74.8618 88.3381 75.7114C88.2503 76.5611 87.9957 77.385 87.5889 78.1361C87.1822 78.8872 86.6312 79.5506 85.9676 80.0884C85.3041 80.6263 84.5409 81.0279 83.7219 81.2704Z" fill="#0091C7"/>
</g>
</g>
<defs>
<clipPath id="clip0_1089_7817">
<rect width="82.8321" height="82.8321" fill="white" transform="translate(-4.39258 26.6345) rotate(-16.6324)"/>
</clipPath>
</defs>
</svg>
